<?xml version="1.0" encoding="utf-8"?>
<svg id="master-artboard" viewBox="0 0 900 900" version="1.1" xmlns="http://www.w3.org/2000/svg" x="0px" y="0px" style="enable-background:new 0 0 1400 980;" width="900px" height="900px"><rect id="ee-background" x="0" y="0" width="900" height="900" style="fill: white; fill-opacity: 0; pointer-events: none;"/><g transform="matrix(1.89114785194397, 0, 0, 1.89114785194397, -70.6644284532955, -24.97185988001823)"><g id="Layer_2_4_" transform="matrix(1, 0, 0, 1, 0, 0)">
	<g id="Layer_1-2_4_">
		<path class="st0" d="M58,49h100v100H58V49z" style="fill: rgb(230, 103, 10);"/>
	</g>
</g></g><g transform="matrix(1.89114785194397, 0, 0, 1.89114785194397, 143.4181139661382, -26.022080369520182)"><g id="g-1" transform="matrix(1, 0, 0, 1, 0, 0)">
	<g id="g-2">
		<path class="st0" d="M58,49h100v100H58V49z" style="fill: rgb(230, 103, 10);"/>
	</g>
</g></g><g transform="matrix(1.89114785194397, 0, 0, 1.89114785194397, 356.36910273566923, -26.496964402723307)"><g id="g-3" transform="matrix(1, 0, 0, 1, 0, 0)">
	<g id="g-4">
		<path class="st0" d="M58,49h100v100H58V49z" style="fill: rgb(230, 103, 10);"/>
	</g>
</g></g><g transform="matrix(1.89114785194397, 0, 0, 1.89114785194397, 569.8858568860601, -26.496964402723307)"><g id="g-5" transform="matrix(1, 0, 0, 1, 0, 0)">
	<g id="g-6">
		<path class="st0" d="M58,49h100v100H58V49z" style="fill: rgb(230, 103, 10);"/>
	</g>
</g></g><g transform="matrix(1.8911478519439697, 0, 0, 1.8911478519439697, -70.6644287109375, 268.18902587890625)"><g id="g-7" transform="matrix(1, 0, 0, 1, 0, 0)">
	<g id="g-8">
		<path class="st0" d="M58,49h100v100H58V49z" style="fill: rgb(40, 130, 206);"/>
	</g>
</g></g><g transform="matrix(1.8911478519439697, 0, 0, 1.8911478519439697, 143.41812133789062, 267.1388244628906)"><g id="g-9" transform="matrix(1, 0, 0, 1, 0, 0)">
	<g id="g-10">
		<path class="st0" d="M58,49h100v100H58V49z" style="fill: rgb(40, 130, 206);"/>
	</g>
</g></g><g transform="matrix(1.89114785194397, 0, 0, 1.89114785194397, -73.71468327507284, 556.4366382938384)"><g id="g-13" transform="matrix(1, 0, 0, 1, 0, 0)">
	<g id="g-14">
		<path class="st0" d="M58,49h100v100H58V49z" style="fill: rgb(255, 255, 255);"/>
	</g>
</g></g><g transform="matrix(1.89114785194397, 0, 0, 1.89114785194397, 140.36786677375528, 555.3864368778228)"><g id="g-15" transform="matrix(1, 0, 0, 1, 0, 0)">
	<g id="g-16">
		<path class="st0" d="M58,49h100v100H58V49z" style="fill: rgb(255, 255, 255);"/>
	</g>
</g></g><g transform="matrix(1.89114785194397, 0, 0, 1.89114785194397, 353.3188708020757, 554.9115528446198)"><g id="g-17" transform="matrix(1, 0, 0, 1, 0, 0)">
	<g id="g-18">
		<path class="st0" d="M58,49h100v100H58V49z" style="fill: rgb(255, 255, 255);"/>
	</g>
</g></g></svg>