<?xml version="1.0" encoding="utf-8"?>
<svg id="master-artboard" viewBox="0 0 928.7379760742188 873.2415161132812" version="1.1" xmlns="http://www.w3.org/2000/svg" x="0px" y="0px" style="enable-background:new 0 0 1400 980;" width="928.7379760742188px" height="873.2415161132812px"><rect id="ee-background" x="0" y="0" width="928.7379760742188" height="873.2415161132812" style="fill: white; fill-opacity: 0; pointer-events: none;"/><g transform="matrix(-0.009493513964116573, 3.1210038661956787, -3.1210038661956787, -0.009493513964116573, 953.5694885253906, 82.32417297363281)"><g>
	<path d="M54.368,260.924H7c-3.866,0-7,3.134-7,7s3.134,7,7,7h47.368c3.866,0,7-3.134,7-7S58.234,260.924,54.368,260.924z" style="fill: rgb(230, 103, 10);"/>
	<path d="M54.368,229.23H7c-3.866,0-7,3.134-7,7s3.134,7,7,7h47.368c3.866,0,7-3.134,7-7S58.234,229.23,54.368,229.23z" style="fill: rgb(230, 103, 10);"/>
	<path d="M54.368,197.538H7c-3.866,0-7,3.134-7,7s3.134,7,7,7h47.368c3.866,0,7-3.134,7-7S58.234,197.538,54.368,197.538z" style="fill: rgb(230, 103, 10);"/>
	<path d="M54.368,165.846H7c-3.866,0-7,3.134-7,7s3.134,7,7,7h47.368c3.866,0,7-3.134,7-7S58.234,165.846,54.368,165.846z" style="fill: rgb(230, 103, 10);"/>
	<path d="M54.368,134.153H7c-3.866,0-7,3.134-7,7c0,3.866,3.134,7,7,7h47.368c3.866,0,7-3.134,7-7&#10;&#9;&#9;C61.368,137.287,58.234,134.153,54.368,134.153z" style="fill: rgb(230, 103, 10);"/>
	<path d="M54.368,102.461H7c-3.866,0-7,3.134-7,7c0,3.866,3.134,7,7,7h47.368c3.866,0,7-3.134,7-7&#10;&#9;&#9;C61.368,105.595,58.234,102.461,54.368,102.461z" style="fill: rgb(230, 103, 10);"/>
	<path d="M54.368,70.77H7c-3.866,0-7,3.134-7,7c0,3.866,3.134,7,7,7h47.368c3.866,0,7-3.134,7-7&#10;&#9;&#9;C61.368,73.903,58.234,70.77,54.368,70.77z" style="fill: rgb(230, 103, 10);"/>
	<path d="M54.368,39.076H7c-3.866,0-7,3.134-7,7s3.134,7,7,7h47.368c3.866,0,7-3.134,7-7S58.234,39.076,54.368,39.076z" style="fill: rgb(230, 103, 10);"/>
	<path d="M138.578,260.924H91.21c-3.866,0-7,3.134-7,7s3.134,7,7,7h47.368c3.866,0,7-3.134,7-7S142.444,260.924,138.578,260.924z" style="fill: rgb(40, 130, 206);"/>
	<path d="M138.578,229.23H91.21c-3.866,0-7,3.134-7,7s3.134,7,7,7h47.368c3.866,0,7-3.134,7-7S142.444,229.23,138.578,229.23z" style="fill: rgb(40, 130, 206);"/>
	<path d="M138.578,197.538H91.21c-3.866,0-7,3.134-7,7s3.134,7,7,7h47.368c3.866,0,7-3.134,7-7S142.444,197.538,138.578,197.538z" style="fill: rgb(40, 130, 206);"/>
	<path d="M138.578,165.846H91.21c-3.866,0-7,3.134-7,7s3.134,7,7,7h47.368c3.866,0,7-3.134,7-7S142.444,165.846,138.578,165.846z" style="fill: rgb(40, 130, 206);"/>
	<path d="M138.578,134.153H91.21c-3.866,0-7,3.134-7,7c0,3.866,3.134,7,7,7h47.368c3.866,0,7-3.134,7-7&#10;&#9;&#9;C145.578,137.287,142.444,134.153,138.578,134.153z" style="fill: rgb(40, 130, 206);"/>
	<path d="M222.789,260.924h-47.368c-3.866,0-7,3.134-7,7s3.134,7,7,7h47.368c3.866,0,7-3.134,7-7S226.655,260.924,222.789,260.924z" style="fill: rgb(255, 255, 255);"/>
	
	<path d="M307,260.924h-47.368c-3.866,0-7,3.134-7,7s3.134,7,7,7H307c3.866,0,7-3.134,7-7S310.866,260.924,307,260.924z" transform="matrix(1.0000000000000002, 0, 0, 1.0000000000000002, -84.13418850172135, -0.06449027364175208)" style="fill: rgb(255, 255, 255);"/>
	<path d="M307,229.23h-47.368c-3.866,0-7,3.134-7,7s3.134,7,7,7H307c3.866,0,7-3.134,7-7S310.866,229.23,307,229.23z" transform="matrix(1.0000000000000002, 0, 0, 1.0000000000000002, -84.13418850172135, -0.06449027364175208)" style="fill: rgb(255, 255, 255);"/>
	<path d="M307,197.538h-47.368c-3.866,0-7,3.134-7,7s3.134,7,7,7H307c3.866,0,7-3.134,7-7S310.866,197.538,307,197.538z" transform="matrix(1.0000000000000002, 0, 0, 1.0000000000000002, -84.13418850172135, -0.06449027364175208)" style="fill: rgb(255, 255, 255);"/>
	<path d="M307,165.846h-47.368c-3.866,0-7,3.134-7,7s3.134,7,7,7H307c3.866,0,7-3.134,7-7S310.866,165.846,307,165.846z" transform="matrix(1.0000000000000002, 0, 0, 1.0000000000000002, -84.13418850172135, -0.06449027364175208)" style="fill: rgb(255, 255, 255);"/>
	<path d="M307,134.153h-47.368c-3.866,0-7,3.134-7,7c0,3.866,3.134,7,7,7H307c3.866,0,7-3.134,7-7&#10;&#9;&#9;C314,137.287,310.866,134.153,307,134.153z" transform="matrix(1.0000000000000002, 0, 0, 1.0000000000000002, -84.13418850172135, -0.06449027364175208)" style="fill: rgb(255, 255, 255);"/>
	<path d="M307,102.461h-47.368c-3.866,0-7,3.134-7,7c0,3.866,3.134,7,7,7H307c3.866,0,7-3.134,7-7&#10;&#9;&#9;C314,105.595,310.866,102.461,307,102.461z" transform="matrix(1.0000000000000002, 0, 0, 1.0000000000000002, -84.13418850172135, -0.06449027364175208)" style="fill: rgb(255, 255, 255);"/>
	<path d="M307,70.77h-47.368c-3.866,0-7,3.134-7,7c0,3.866,3.134,7,7,7H307c3.866,0,7-3.134,7-7C314,73.903,310.866,70.77,307,70.77&#10;&#9;&#9;z" transform="matrix(1.0000000000000002, 0, 0, 1.0000000000000002, -84.13418850172135, -0.06449027364175208)" style="fill: rgb(255, 255, 255);"/>
	
</g><g>
</g><g>
</g><g>
</g><g>
</g><g>
</g><g>
</g><g>
</g><g>
</g><g>
</g><g>
</g><g>
</g><g>
</g><g>
</g><g>
</g><g>
</g></g></svg>